
<svg width="428" height="428" viewBox="0 0 428 428" fill="none" xmlns="http://www.w3.org/2000/svg">
	<path fill-rule="evenodd" clip-rule="evenodd" d="M260.65 106.223C234.335 79.907 191.669 79.907 165.353 106.223C139.038 132.538 139.038 175.204 165.353 201.519C176.73 212.896 196.643 217.795 212.176 217.795H276.87V159.726C276.87 140.852 274.792 120.383 260.632 106.223H260.65ZM258.108 197.195C255.323 197.195 252.54 197.218 249.758 197.241C244.199 197.286 238.644 197.331 233.091 197.195C227.078 197.065 219.377 195.302 214.997 190.904C204.827 180.734 204.827 164.236 214.997 154.066C225.167 143.896 241.665 143.896 251.835 154.066C257.31 159.541 258.108 167.446 258.108 174.74V197.195Z" fill="#211C9A"/>
	<path fill-rule="evenodd" clip-rule="evenodd" d="M315.898 53.1458C259.704 -3.04861 168.62 -3.04861 112.425 53.1458C56.2308 109.34 56.2308 200.443 112.425 256.619C136.7 280.893 179.216 291.36 212.399 291.36H350.546V167.372C350.546 127.082 346.111 83.3773 315.88 53.1458H315.898ZM308.716 249.53C298.565 249.547 288.415 249.625 278.266 249.703L278.254 249.703C256.105 249.873 233.959 250.043 211.805 249.585C188.533 249.103 158.71 242.236 141.673 225.218C102.255 185.8 102.255 121.904 141.673 82.505C181.091 43.0873 244.987 43.0873 284.405 82.505C305.617 103.717 308.716 134.375 308.716 162.621V249.53Z" fill="#211C9A"/>
	<path d="M168.713 353.177C168.713 349.317 171.83 346.292 176.062 346.292C180.293 346.292 183.411 349.15 183.411 352.918C183.411 356.963 180.386 360.081 176.062 360.081C171.738 360.081 168.713 357.056 168.713 353.196V353.177Z" fill="#211C9A"/>
	<path d="M170.272 368.154H181.759V417.222H170.272V368.154Z" fill="#211C9A"/>
	<path fill-rule="evenodd" clip-rule="evenodd" d="M119.013 402.802L125.082 409.873C120.758 415.106 113.873 417.871 105.41 417.871C88.9675 417.871 78.2965 407.293 78.2965 392.688C78.2965 378.082 88.949 367.597 103.573 367.597C117.269 367.597 128.293 376.783 128.385 392.131L90.8048 399.48C93.1988 405.085 98.525 408.11 105.689 408.11C111.2 408.11 115.432 406.365 119.013 402.783V402.802ZM89.4315 392.057V392.15L117.176 386.823C115.617 380.848 110.458 376.802 103.573 376.802C95.2031 376.802 89.4129 382.685 89.4129 392.057H89.4315Z" fill="#211C9A"/>
	<path d="M105.503 361.454H95.5928L107.99 348.872H121.5L105.503 361.454Z" fill="#211C9A"/>
	<path d="M66.1781 352.899V417.222H54.2265V389.644H20.9515V417.222H9V352.899H20.9515V379.456H54.2265V352.899H66.1781Z" fill="#211C9A"/>
	<path d="M139.409 349.057V401.893C139.409 412.1 145.385 417.89 155.592 417.89C157.875 417.89 160.269 417.537 162.477 416.702L161.92 407.516C160.992 407.961 159.341 408.425 157.782 408.425C153.198 408.425 150.897 405.846 150.897 401.076V349.057H139.409Z" fill="#211C9A"/>
	<path fill-rule="evenodd" clip-rule="evenodd" d="M233.871 417.222H244.802V368.154L244.82 368.135H233.333V374.111C229.38 369.694 223.868 367.579 217.614 367.579C203.287 367.579 192.801 377.414 192.801 392.669C192.801 407.924 203.287 417.853 217.614 417.853C224.313 417.853 230.011 415.57 233.871 410.875V417.222ZM218.894 377.34C227.245 377.34 233.5 383.316 233.5 392.688C233.5 402.06 227.153 408.036 218.894 408.036C210.636 408.036 204.382 402.06 204.382 392.688C204.382 383.316 210.543 377.34 218.894 377.34Z" fill="#211C9A"/>
	<path fill-rule="evenodd" clip-rule="evenodd" d="M307.937 349.039V417.222H296.913V410.875C293.053 415.57 287.356 417.853 280.656 417.853C266.403 417.853 255.844 407.924 255.844 392.669C255.844 377.414 266.403 367.579 280.656 367.579C287.003 367.579 292.608 369.694 296.468 374.204V349.02H307.955L307.937 349.039ZM296.635 392.688C296.635 383.316 290.288 377.34 282.029 377.34C273.771 377.34 267.424 383.316 267.424 392.688C267.424 402.06 273.771 408.036 282.029 408.036C290.288 408.036 296.635 402.06 296.635 392.688Z" fill="#211C9A"/>
	<path fill-rule="evenodd" clip-rule="evenodd" d="M365.746 409.873L359.677 402.802V402.784C356.095 406.365 351.864 408.11 346.352 408.11C339.189 408.11 333.863 405.085 331.469 399.48L369.049 392.131C368.956 376.783 357.933 367.597 344.237 367.597C329.613 367.597 318.96 378.083 318.96 392.688C318.96 407.293 329.631 417.871 346.074 417.871C354.537 417.871 361.422 415.106 365.746 409.873ZM330.095 392.15V392.057H330.077C330.077 382.685 335.867 376.802 344.237 376.802C351.14 376.802 356.281 380.848 357.84 386.823L330.095 392.15Z" fill="#211C9A"/>
	<path d="M374.45 412.36L378.867 403.637C383.191 406.495 389.797 408.5 395.959 408.5C403.215 408.5 406.259 406.477 406.259 403.081C406.259 399.247 401.185 398.456 395.188 397.522C386.524 396.172 375.934 394.523 375.934 382.963C375.934 373.684 384.304 367.616 397.536 367.616C404.069 367.616 411.51 369.175 415.909 371.847L411.492 380.569C406.797 377.804 402.12 376.895 397.425 376.895C390.447 376.895 387.125 379.196 387.125 382.407C387.125 386.559 392.43 387.43 398.602 388.443C407.187 389.851 417.449 391.535 417.449 402.709C417.449 411.896 408.987 417.871 395.216 417.871C387.032 417.871 378.867 415.477 374.45 412.36Z" fill="#211C9A"/>
</svg>